<svg width="300" height="68" viewBox="0 0 300 68" fill="none" xmlns="http://www.w3.org/2000/svg">
<path d="M232.552 67.3646H222.031V20.4291H232.552V67.3646Z" fill="black"/>
<path d="M22.8295 30.052C21.2026 30.0304 19.5892 30.3497 18.0932 30.9894C16.5972 31.6292 15.2518 32.5751 14.1435 33.7663C12.9153 35.1351 11.9696 36.733 11.3606 38.4683C10.7516 40.2035 10.4914 42.0419 10.5949 43.878C10.4887 45.7363 10.7511 47.5973 11.367 49.3538C11.9829 51.1103 12.9401 52.7275 14.1836 54.1126C15.3084 55.3184 16.6734 56.2753 18.1906 56.9214C19.7078 57.5675 21.3435 57.8887 22.9923 57.8642C25.7096 57.9904 28.3745 57.0874 30.4554 55.3355C32.2014 53.8137 33.4879 51.8346 34.1698 49.6211L43.4671 53.0069C42.1855 57.0542 39.713 60.621 36.3727 63.2414C32.5592 66.2022 27.8221 67.7201 22.998 67.5272C19.9451 67.6022 16.9102 67.0389 14.0876 65.8733C11.2649 64.7077 8.71675 62.9657 6.60621 60.7585C2.37244 56.1606 0.015414 50.143 7.53338e-05 43.8928C-0.0152633 37.6425 2.31222 31.6134 6.52337 26.9948C8.61741 24.8163 11.1413 23.0968 13.9351 21.9454C16.7289 20.7939 19.7314 20.2356 22.7523 20.306C27.6421 20.0942 32.4503 21.6116 36.3327 24.5918C39.6577 27.2047 42.0466 30.8247 43.1414 34.9093L33.6412 38.375C33.071 36.1175 31.8522 34.0764 30.1354 32.5035C28.1041 30.7804 25.4889 29.9029 22.8295 30.052Z" fill="black"/>
<path d="M60.9167 53.9899C62.0899 55.1751 63.4857 56.1166 65.024 56.7604C66.5622 57.4042 68.2125 57.7375 69.8801 57.7412C71.5476 57.7449 73.1995 57.4189 74.7406 56.782C76.2817 56.1451 77.6817 55.2098 78.86 54.03C80.134 52.6372 81.1153 51.0028 81.7455 49.2236C82.3757 47.4444 82.642 45.5567 82.5287 43.6726C82.6391 41.8135 82.3708 39.9513 81.7402 38.199C81.1096 36.4466 80.1297 34.8405 78.86 33.478C76.4663 31.1258 73.2445 29.8077 69.8884 29.8077C66.5324 29.8077 63.3105 31.1258 60.9167 33.478C59.647 34.8405 58.6672 36.4466 58.0366 38.199C57.406 39.9513 57.1377 41.8135 57.2481 43.6726C57.1418 45.55 57.4116 47.4296 58.0416 49.2014C58.6716 50.9731 59.6491 52.6011 60.9167 53.9899V53.9899ZM69.8884 20.3062C75.0984 20.4795 80.0894 22.4433 84.0206 25.8668C87.9518 29.2902 90.5828 33.964 91.4704 39.1007C92.358 44.2375 91.4478 49.5232 88.8933 54.0673C86.3389 58.6114 82.2962 62.136 77.4464 64.0475C72.5967 65.9589 67.2363 66.1404 62.2684 64.5611C57.3005 62.9819 53.0287 59.7386 50.1729 55.3776C47.3171 51.0166 46.0517 45.8045 46.5899 40.6195C47.1282 35.4345 49.4373 30.5935 53.128 26.9122C55.3276 24.7319 57.9478 23.0219 60.8291 21.8863C63.7105 20.7507 66.7928 20.213 69.8884 20.3062V20.3062Z" fill="black"/>
<path d="M120.823 20.6035V31.3295C119.675 31.1533 118.517 31.0578 117.357 31.0437C109.356 31.0437 105.408 34.9581 105.408 43.644V67.2133H94.8047V20.4406H105.122V27.9437C106.136 25.5821 107.898 23.6194 110.136 22.3579C112.525 20.9719 115.247 20.2664 118.008 20.3177C118.954 20.3097 119.898 20.4055 120.823 20.6035V20.6035Z" fill="black"/>
<path d="M135.298 38.8922H158.907C158.869 37.5723 158.565 36.2737 158.011 35.0749C157.458 33.8762 156.667 32.8021 155.687 31.9178C153.275 29.8999 150.178 28.8915 147.041 29.1034C144 28.9584 141.025 30.0132 138.755 32.0406C136.752 33.7855 135.511 36.2445 135.298 38.8922V38.8922ZM160.172 50.3925L169.835 53.2068C168.411 57.3035 165.691 60.825 162.087 63.2386C157.948 65.9872 153.052 67.37 148.086 67.1929C141.673 67.3451 135.444 65.0402 130.675 60.7499C128.288 58.5758 126.408 55.904 125.168 52.9234C123.928 49.9428 123.357 46.7262 123.497 43.5009C123.398 40.384 123.97 37.2823 125.172 34.4052C126.375 31.5281 128.181 28.9425 130.469 26.8233C135.087 22.6773 141.059 20.357 147.265 20.2971C153.471 20.2371 159.486 22.4416 164.184 26.4976C166.307 28.7135 167.955 31.3393 169.028 34.2143C170.101 37.0894 170.576 40.1531 170.424 43.218C170.515 44.3405 170.418 45.4702 170.138 46.561H134.995C135.04 48.139 135.42 49.6894 136.109 51.1095C136.799 52.5296 137.782 53.787 138.995 54.7983C141.537 56.9746 144.792 58.1365 148.138 58.0613C150.717 58.3481 153.316 57.7449 155.505 56.3516C157.694 54.9584 159.341 52.8588 160.172 50.4011V50.3925Z" fill="black"/>
<path d="M183.457 67.3645H172.691V0H183.549V27.1178C184.928 25.0303 186.882 23.3868 189.175 22.3863C191.977 21.0636 195.048 20.4075 198.146 20.4691C201.097 20.3098 204.046 20.8133 206.777 21.9426C209.507 23.0719 211.95 24.7982 213.927 26.995C217.65 31.8257 219.646 37.7658 219.594 43.8647C219.542 49.9636 217.446 55.8689 213.641 60.6358C211.641 62.8307 209.184 64.5599 206.443 65.7014C203.702 66.8428 200.744 67.3686 197.778 67.2417C194.982 67.4686 192.176 66.9367 189.658 65.7022C187.139 64.4676 184.999 62.5762 183.466 60.2273L183.457 67.3645ZM204.947 54.0299C207.188 51.0903 208.406 47.4976 208.413 43.8007C208.42 40.1039 207.217 36.5063 204.987 33.558C202.59 31.1808 199.351 29.847 195.975 29.847C192.599 29.847 189.36 31.1808 186.963 33.558C185.738 34.9437 184.797 36.5572 184.196 38.3064C183.594 40.0557 183.343 41.9062 183.457 43.7525C183.276 47.4933 184.536 51.1612 186.977 54.0013C188.141 55.21 189.536 56.1723 191.079 56.8307C192.623 57.4892 194.283 57.8304 195.961 57.8342C197.639 57.8379 199.3 57.504 200.846 56.8524C202.392 56.2009 203.792 55.2449 204.961 54.0414L204.947 54.0299Z" fill="black"/>
<path d="M282.303 67.3246H235.896V58.11L265.217 29.7294H235.407V20.4291H282.22V29.3608L252.533 57.9872H282.303V67.3246Z" fill="black"/>
<path d="M286.746 65.0818C286.019 64.3718 285.445 63.5208 285.06 62.5808C284.674 61.6408 284.485 60.6319 284.503 59.616C284.484 58.5942 284.674 57.5792 285.059 56.6327C285.445 55.6862 286.019 54.828 286.746 54.1101C287.445 53.3671 288.293 52.7794 289.234 52.3856C290.175 51.9918 291.189 51.8005 292.209 51.8242C294.274 51.8265 296.254 52.6479 297.714 54.1081C299.174 55.5682 299.996 57.548 299.998 59.613C300.022 60.6335 299.831 61.6478 299.437 62.5895C299.043 63.5313 298.456 64.3795 297.712 65.079C296.992 65.8034 296.133 66.3753 295.187 66.7606C294.241 67.146 293.228 67.3368 292.206 67.3218C291.192 67.3401 290.184 67.1509 289.245 66.7657C288.306 66.3805 287.456 65.8074 286.746 65.0818Z" fill="#C0C0C0"/>
</svg>
